<?xml version="1.0" encoding="UTF-8"?><svg id="a" xmlns="http://www.w3.org/2000/svg" width="418" height="566" viewBox="0 0 418 566"><defs><style>.u{fill:#f5f5f5;}.v,.w{fill:#d8d8d8;}.x{fill:#c9effc;}.y{fill:#99d5e9;}.a`{fill:none;stroke:#f5f5f5;stroke-dasharray:0 0 0 10;stroke-linecap:round;stroke-linejoin:round;stroke-width:3px;}.aa{fill:#c3c3c3;}.aa,.w{fill-rule:evenodd;}.ab{isolation:isolate;}</style></defs><g id="b" transform="translate(39.679878, 506.762424)"><path id="c" class="w" d="M73.0799,506.7624l22.2,18.6-27.6,33c-3.2,3.8-8.9,4.3-12.7,1.1l-15.3-12.9h0l33.4-39.8Z"/><path id="d" class="w" d="M331.8799,506.7624l-22.2,18.6,27.6,32.9c3.2,3.8,8.9,4.3,12.7,1.1l15.3-12.9h0l-33.4-39.7Z"/></g><rect id="e" class="v" x="294.3115" y="162.7838" width="26" height="16" transform="translate(15.6259 367.0666) rotate(-63.0001)"/><rect id="f" class="v" x="102.5266" y="157.8318" width="16" height="26" transform="translate(-65.5097 68.7981) rotate(-27.0002)"/><path id="g" class="w" d="M80.0464,75.7C80.0464,34.3,113.2464,.7,154.4464,0h110.2c40.8,.7,73.8,33.6,74.4,74.4v1.6h0v8.9h-6.2v-.4c0-41.4-33.2-75.1-74.5-75.8h-94.8c-41.4,0-75.1,33.2-75.8,74.5v1.6h-7.8v-9.1h.1Z"/><path id="h" class="w" d="M54.0464,92.6l25.8-12.7c2.3-1.1,5-.2,6.2,2,1.1,2.1,.3,4.8-1.8,5.9,0,0-.1,0-.1,.1l-25.8,12.7c-2.3,1.1-5,.2-6.2-2-1.1-2.1-.3-4.8,1.8-5.9,0,0,0-.1,.1-.1Z"/><path id="i" class="w" d="M339.0464,79.2l25.8,12.7c2.2,1.1,3.1,3.7,2,5.9,0,0,0,.1-.1,.1-1.2,2.2-3.9,3.1-6.2,2l-25.8-12.7c-2.2-1.1-3.1-3.7-2-5.9,0,0,0-.1,.1-.1,1.2-2.2,3.9-3.1,6.2-2Z"/><g id="j" transform="translate(5.131818, 71.538638)"><path id="k" class="aa" d="M59.5782,76.4386l3.6-1.8c2.5-1.2,5.5-.2,6.7,2.3l3.1,6.3h0l-12.6,6.1-3.1-6.3c-1.2-2.4-.2-5.3,2.3-6.6Z"/><path id="l" class="aa" d="M357.5782,75.0386l-1.8-.9c-3-1.5-6.6-.2-8,2.8l-2.6,5.4h0l12.6,6.1,2.6-5.4c1.4-2.9,.1-6.5-2.8-8Z"/></g><g id="m" transform="translate(184.000000, 96.000000)"><rect id="n" class="v" x="207" y="108" width="4" height="56"/><path id="o" class="w" d="M188,96h42c2.2,0,4,1.8,4,4v5c0,2.2-1.8,4-4,4h-42c-2.2,0-4-1.8-4-4v-5c0-2.2,1.8-4,4-4Z"/></g><g id="p" transform="translate(0.000000, 148.000000)"><circle id="q" class="x" cx="209" cy="357" r="209"/><circle id="r" class="y" cx="209" cy="357" r="176"/><path id="s" class="a`" d="M208.5,439c45,0,81.5-36.5,81.5-81.5s-36.5-81.5-81.5-81.5-81.5,36.5-81.5,81.5,36.5,81.5,81.5,81.5Z"/></g><g id="t" transform="translate(52.250000, 195.000000)"><g class="ab"><path class="u" d="M291.1035,258h-6.3115v-23.7861c-2.3057,2.1562-5.0244,3.751-8.1533,4.7842v-5.7275c1.6465-.5391,3.4365-1.5615,5.3682-3.0654,1.9316-1.5059,3.2568-3.2607,3.9756-5.2676h5.1211v33.0625Z"/></g><g class="ab"><path class="u" d="M340.5195,303.1377v5.8623h-22.124c.2393-2.2158,.958-4.3164,2.1562-6.3008,1.1982-1.9834,3.5635-4.6152,7.0977-7.8945,2.8447-2.6504,4.5889-4.4473,5.2334-5.3906,.8682-1.3027,1.3027-2.5908,1.3027-3.8633,0-1.4072-.3789-2.4893-1.1348-3.2461-.7559-.7559-1.8008-1.1338-3.1328-1.1338-1.3184,0-2.3662,.3965-3.1445,1.1904-.7793,.7939-1.2285,2.1113-1.3477,3.9531l-6.2891-.6289c.374-3.4736,1.5498-5.9668,3.5264-7.4795s4.4473-2.2686,7.4121-2.2686c3.249,0,5.8018,.876,7.6592,2.6279,1.8564,1.752,2.7852,3.9307,2.7852,6.5361,0,1.4824-.2656,2.8936-.7969,4.2344-.5322,1.3398-1.375,2.7432-2.5273,4.2109-.7637,.9736-2.1416,2.373-4.1328,4.2002-1.9922,1.8271-3.2539,3.04-3.7852,3.6387s-.9619,1.1826-1.291,1.752h12.5332Z"/></g><g class="ab"><path class="u" d="M344.4795,361.2627l6.1094-.7412c.1943,1.5576,.7188,2.748,1.5723,3.5713s1.8867,1.2354,3.0996,1.2354c1.3027,0,2.3994-.4941,3.29-1.4824s1.3369-2.3213,1.3369-3.998c0-1.5869-.4268-2.8447-1.2803-3.7734s-1.8945-1.3926-3.1221-1.3926c-.8086,0-1.7744,.1572-2.8975,.4717l.6963-5.1436c1.707,.0449,3.0098-.3262,3.9082-1.1113,.8984-.7871,1.3477-1.8311,1.3477-3.1338,0-1.1084-.3291-1.9912-.9883-2.6504s-1.5352-.9883-2.6279-.9883c-1.0781,0-1.999,.374-2.7627,1.123s-1.2275,1.8418-1.3926,3.2793l-5.8174-.9883c.4043-1.9912,1.0137-3.583,1.8301-4.7725,.8164-1.1914,1.9551-2.127,3.4141-2.8086,1.4609-.6807,3.0957-1.0215,4.9082-1.0215,3.0996,0,5.585,.9883,7.457,2.9648,1.542,1.6172,2.3135,3.4443,2.3135,5.4805,0,2.8896-1.5801,5.1963-4.7393,6.918,1.8867,.4043,3.3945,1.3105,4.5254,2.7178s1.6963,3.1074,1.6963,5.0986c0,2.8896-1.0557,5.3535-3.167,7.3896s-4.7393,3.0547-7.8838,3.0547c-2.9795,0-5.4502-.8574-7.4121-2.5713-1.9619-1.7148-3.0996-3.957-3.4141-6.7275Z"/></g><g class="ab"><path class="u" d="M329.5801,437v-6.626h-13.4766v-5.5254l14.2852-20.9111h5.3008v20.8887h4.0879v5.5479h-4.0879v6.626h-6.1094Zm0-12.1738v-11.2529l-7.5693,11.2529h7.5693Z"/></g><g class="ab"><path class="u" d="M261.7939,482.5322l6.2891-.6514c.1797,1.4229,.7109,2.5488,1.5947,3.3809,.8828,.8301,1.9014,1.2461,3.0547,1.2461,1.3174,0,2.4336-.5352,3.3467-1.6055,.9131-1.0713,1.3701-2.6846,1.3701-4.8408,0-2.0215-.4531-3.5381-1.3594-4.5479-.9062-1.0117-2.085-1.5166-3.5371-1.5166-1.8125,0-3.4365,.8008-4.874,2.4033l-5.1211-.7412,3.2344-17.1377h16.6885v5.9072h-11.9043l-.9883,5.5928c1.4072-.7041,2.8447-1.0557,4.3125-1.0557,2.7998,0,5.1738,1.0186,7.1201,3.0547s2.9199,4.6797,2.9199,7.9287c0,2.71-.7861,5.1289-2.3584,7.2549-2.1416,2.9053-5.1133,4.3574-8.917,4.3574-3.04,0-5.5186-.8164-7.4346-2.4482-1.917-1.6318-3.0625-3.8262-3.4365-6.5811Z"/></g><g class="ab"><path class="u" d="M219.3369,489.1357l-6.1094,.6738c-.1494-1.2578-.5391-2.1865-1.168-2.7852s-1.4453-.8984-2.4482-.8984c-1.333,0-2.4595,.5986-3.3804,1.7969s-1.5015,3.6914-1.7407,7.4795c1.5723-1.8564,3.5264-2.7852,5.8623-2.7852,2.6357,0,4.8926,1.0029,6.7725,3.0098,1.8789,2.0068,2.8184,4.5967,2.8184,7.7715,0,3.3691-.9883,6.0723-2.9648,8.1084s-4.5146,3.0547-7.6143,3.0547c-3.3242,0-6.0571-1.292-8.1982-3.874-2.1416-2.584-3.2119-6.8174-3.2119-12.7021,0-6.0342,1.1152-10.3848,3.3467-13.0498,2.231-2.665,5.1284-3.998,8.6924-3.998,2.501,0,4.5713,.7002,6.21,2.0996,1.6406,1.4004,2.6846,3.4336,3.1338,6.0986Zm-14.3076,13.7686c0,2.0518,.4717,3.6348,1.415,4.75,.9434,1.1162,2.0215,1.6738,3.2344,1.6738,1.168,0,2.1416-.457,2.9199-1.3701s1.168-2.4111,1.168-4.4922c0-2.1416-.4189-3.71-1.2578-4.7061-.8389-.9951-1.8867-1.4932-3.1445-1.4932-1.2129,0-2.2388,.4756-3.0771,1.4268-.8389,.9502-1.2578,2.3545-1.2578,4.2109Z"/></g><g class="ab"><path class="u" d="M131.7041,464.3838v-5.8623h21.585v4.582c-1.7822,1.752-3.5938,4.2676-5.4355,7.5469s-3.2456,6.7646-4.2114,10.4551c-.9658,3.6914-1.4414,6.9893-1.4263,9.8945h-6.0869c.1045-4.5518,1.0444-9.1943,2.8188-13.9258s4.144-8.9619,7.1089-12.6904h-14.3525Z"/></g><g class="ab"><path class="u" d="M85.8672,419.2334c-1.6323-.6885-2.8188-1.6357-3.5601-2.8408-.7412-1.2061-1.1118-2.5273-1.1118-3.9648,0-2.4561,.8569-4.4844,2.5718-6.0869,1.7144-1.6025,4.1514-2.4033,7.311-2.4033,3.1294,0,5.5591,.8008,7.2886,2.4033s2.5942,3.6309,2.5942,6.0869c0,1.5273-.397,2.8867-1.1904,4.0762-.7939,1.1914-1.9092,2.1006-3.3467,2.7295,1.8267,.7334,3.2153,1.8047,4.1665,3.2119,.9507,1.4072,1.4263,3.0322,1.4263,4.874,0,3.04-.9697,5.5107-2.9087,7.4121-1.9395,1.9014-4.5186,2.8525-7.7378,2.8525-2.9951,0-5.4883-.7861-7.4795-2.3584-2.3511-1.8564-3.5264-4.4023-3.5264-7.6367,0-1.7822,.4414-3.418,1.3252-4.9072,.8833-1.4902,2.2759-2.6396,4.1777-3.4482Zm.7188,7.749c0,1.7373,.4453,3.0918,1.3364,4.0654,.8906,.9736,2.0024,1.46,3.3354,1.46,1.3027,0,2.3809-.4678,3.2344-1.4043,.8535-.9355,1.2803-2.2871,1.2803-4.0537,0-1.542-.4346-2.7812-1.3027-3.7178-.8687-.9355-1.9692-1.4033-3.3018-1.4033-1.5425,0-2.6919,.5312-3.4478,1.5947-.7563,1.0635-1.1343,2.2158-1.1343,3.459Zm.584-14.1055c0,1.2578,.3555,2.2383,1.0669,2.9424,.7109,.7041,1.6582,1.0557,2.8413,1.0557,1.1978,0,2.1562-.3555,2.875-1.0664,.7188-.7119,1.0781-1.6963,1.0781-2.9541,0-1.1826-.356-2.1299-1.0669-2.8408-.7114-.7119-1.6509-1.0674-2.8188-1.0674-1.2129,0-2.1787,.3594-2.8975,1.0781s-1.0781,1.6699-1.0781,2.8525Z"/></g><g class="ab"><path class="u" d="M54.3389,362.3857l6.1094-.6738c.1494,1.2432,.5391,2.1641,1.168,2.7627s1.46,.8984,2.4932,.8984c1.3027,0,2.4106-.5986,3.3242-1.7969,.9131-1.1982,1.4971-3.6836,1.752-7.457-1.5874,1.8418-3.5713,2.7627-5.9521,2.7627-2.5908,0-4.8257-.999-6.7046-2.999-1.8794-1.998-2.8188-4.6006-2.8188-7.8047,0-3.3389,.9917-6.0312,2.9761-8.0742,1.9839-2.0449,4.5107-3.0664,7.5806-3.0664,3.3389,0,6.0791,1.291,8.2207,3.875,2.1411,2.582,3.2119,6.8311,3.2119,12.7461,0,6.0195-1.1157,10.3623-3.3467,13.0273-2.2314,2.665-5.1362,3.998-8.7148,3.998-2.5757,0-4.6572-.6855-6.2441-2.0547-1.5874-1.3711-2.6055-3.418-3.0547-6.1436Zm14.2852-13.791c0-2.0361-.4683-3.6162-1.4038-4.7393-.936-1.123-2.0181-1.6846-3.2456-1.6846-1.168,0-2.1377,.46-2.9087,1.3818-.7715,.9199-1.1567,2.4287-1.1567,4.5254,0,2.126,.4189,3.6875,1.2578,4.6836,.8384,.9951,1.8867,1.4932,3.1445,1.4932,1.2129,0,2.2349-.4795,3.0659-1.4375s1.2466-2.3662,1.2466-4.2227Z"/></g><g class="ab"><path class="u" d="M83.1035,309h-6.3115v-23.7861c-2.3062,2.1562-5.0239,3.751-8.1533,4.7842v-5.7275c1.647-.5391,3.4365-1.5615,5.3682-3.0654,1.9316-1.5059,3.2568-3.2607,3.9756-5.2676h5.1211v33.0625Z"/><path class="u" d="M103.2061,275.9375c3.1895,0,5.6826,1.1377,7.4795,3.4141,2.1411,2.6953,3.2119,7.165,3.2119,13.4092,0,6.2295-1.0781,10.7061-3.2344,13.4316-1.7822,2.2461-4.2676,3.3691-7.457,3.3691-3.2046,0-5.7876-1.2314-7.749-3.6943-1.9619-2.4639-2.9424-6.8545-2.9424-13.1738,0-6.1992,1.0781-10.6611,3.2344-13.3867,1.7817-2.2461,4.2676-3.3691,7.457-3.3691Zm0,5.2334c-.7637,0-1.4453,.2432-2.0439,.7295-.5991,.4873-1.0635,1.3594-1.3926,2.6172-.4346,1.6318-.6514,4.3799-.6514,8.2432s.1943,6.5176,.584,7.9619c.3892,1.4453,.8794,2.4072,1.4712,2.8867,.5913,.4795,1.269,.7188,2.0327,.7188s1.4448-.2432,2.0439-.7305c.5986-.4863,1.063-1.3584,1.3926-2.6162,.4341-1.6172,.6514-4.3574,.6514-8.2207s-.1948-6.5176-.584-7.9619c-.3896-1.4453-.8799-2.4111-1.4712-2.8984-.5918-.4863-1.269-.7295-2.0327-.7295Z"/></g><g class="ab"><path class="u" d="M127.1035,258h-6.3115v-23.7861c-2.3062,2.1562-5.0239,3.751-8.1533,4.7842v-5.7275c1.647-.5391,3.4365-1.5615,5.3682-3.0654,1.9316-1.5059,3.2568-3.2607,3.9756-5.2676h5.1211v33.0625Z"/><path class="u" d="M150.1484,258h-6.3115v-23.7861c-2.3062,2.1562-5.0239,3.751-8.1533,4.7842v-5.7275c1.647-.5391,3.4365-1.5615,5.3682-3.0654,1.9316-1.5059,3.2568-3.2607,3.9756-5.2676h5.1211v33.0625Z"/></g><g class="ab"><path class="u" d="M202.3535,231h-6.3115v-23.7861c-2.3062,2.1562-5.0239,3.751-8.1533,4.7842v-5.7275c1.647-.5391,3.4365-1.5615,5.3682-3.0654,1.9316-1.5059,3.2568-3.2607,3.9756-5.2676h5.1211v33.0625Z"/><path class="u" d="M233.1025,225.1377v5.8623h-22.124c.2393-2.2158,.958-4.3164,2.1562-6.3008,1.1973-1.9834,3.5635-4.6152,7.0977-7.8945,2.8447-2.6504,4.5898-4.4473,5.2334-5.3906,.8682-1.3027,1.3027-2.5908,1.3027-3.8633,0-1.4072-.3779-2.4893-1.1338-3.2461-.7568-.7559-1.8008-1.1338-3.1338-1.1338-1.3174,0-2.3662,.3965-3.1445,1.1904s-1.2275,2.1113-1.3477,3.9531l-6.2891-.6289c.374-3.4736,1.5498-5.9668,3.5264-7.4795s4.4473-2.2686,7.4121-2.2686c3.249,0,5.8027,.876,7.6592,2.6279s2.7852,3.9307,2.7852,6.5361c0,1.4824-.2666,2.8936-.7979,4.2344-.5312,1.3398-1.373,2.7432-2.5264,4.2109-.7637,.9736-2.1416,2.373-4.1328,4.2002s-3.2529,3.04-3.7842,3.6387c-.5322,.5986-.9629,1.1826-1.292,1.752h12.5332Z"/></g></g></svg>