<?xml version="1.0" encoding="utf-8"?>
<!-- Generator: Adobe Illustrator 26.1.0, SVG Export Plug-In . SVG Version: 6.00 Build 0)  -->
<svg version="1.1" xmlns="http://www.w3.org/2000/svg" xmlns:xlink="http://www.w3.org/1999/xlink" x="0px" y="0px"
	 viewBox="0 0 639.5 639.5" style="enable-background:new 0 0 639.5 639.5;" xml:space="preserve">
<style type="text/css">
	.st0{fill-rule:evenodd;clip-rule:evenodd;fill:#D8D8D8;}
	.st1{display:none;fill-rule:evenodd;clip-rule:evenodd;fill:#D8D8D8;}
	.st2{display:none;}
	.st3{display:inline;fill-rule:evenodd;clip-rule:evenodd;fill:#C3C3C3;}
	.st4{fill-rule:evenodd;clip-rule:evenodd;fill:#C9EFFC;}
	.st5{fill-rule:evenodd;clip-rule:evenodd;fill:#99D5E9;}
	.st6{fill:none;stroke:#F5F5F5;stroke-width:3;stroke-linecap:round;stroke-linejoin:round;stroke-dasharray:0,10;}
	.st7{fill:#F5F5F5;}
	.st8{font-family:'Arial-BoldMT';}
	.st9{font-size:46px;}
	.st10{display:inline;fill-rule:evenodd;clip-rule:evenodd;fill:#FFFFFF;}
</style>
<g id="Layer_1">
	<g id="Feet-" transform="translate(39.679878, 506.762424)">
		<path id="Rectangle" class="st0" d="M144-35.8l22.2,18.6l-27.6,33c-3.2,3.8-8.9,4.3-12.7,1.1L110.6,4l0,0L144-35.8z"/>
		<path id="Rectangle-Copy-2" class="st0" d="M402.8-35.8l-22.2,18.6l27.6,32.9c3.2,3.8,8.9,4.3,12.7,1.1l15.3-12.9l0,0L402.8-35.8z
			"/>
	</g>
	
		<rect id="Rectangle_00000103261953827943332740000015825609314967553175_" x="404.9" y="127" transform="matrix(0.454 -0.891 0.891 0.454 107.8921 446.0421)" class="st0" width="26" height="16"/>
	
		<rect id="Rectangle_00000078755875913260977940000014610464703839758735_" x="213.1" y="122" transform="matrix(0.891 -0.454 0.454 0.891 -37.2075 115.0952)" class="st0" width="16" height="26"/>
	<path id="Bracket-" class="st1" d="M190.9,37.6c0-41.4,33.2-75,74.4-75.7h1.3h107.6h1.3c40.8,0.7,73.8,33.6,74.4,74.4v1.2v0.4l0,0
		v8.9h-6.2v-0.4c0-41.4-33.2-75.1-74.5-75.8h-1.3h-93.5c-41.4,0-75.1,33.2-75.8,74.5v1.6l0,0h-7.8v-9.1H190.9z"/>
	<path id="Right-arm-" class="st1" d="M164.9,54.5l25.8-12.7c2.3-1.1,5-0.2,6.2,2c1.1,2.1,0.3,4.8-1.8,5.9c0,0-0.1,0-0.1,0.1
		l-25.8,12.7c-2.3,1.1-5,0.2-6.2-2c-1.1-2.1-0.3-4.8,1.8-5.9C164.8,54.6,164.8,54.5,164.9,54.5z"/>
	<path id="Left-arm-" class="st1" d="M449.9,41.1l25.8,12.7c2.2,1.1,3.1,3.7,2,5.9c0,0,0,0.1-0.1,0.1c-1.2,2.2-3.9,3.1-6.2,2
		l-25.8-12.7c-2.2-1.1-3.1-3.7-2-5.9c0,0,0-0.1,0.1-0.1C444.9,40.9,447.6,40,449.9,41.1z"/>
	<g id="Nuts-_x26_-Bolts" transform="translate(5.131818, 71.538638)" class="st2">
		<path id="Nuts-_x26_-Bolts-_x28_Left_x29_" class="st3" d="M165.3-33.2l3.6-1.8c2.5-1.2,5.5-0.2,6.7,2.3l3.1,6.3l0,0l-12.6,6.1
			l-3.1-6.3C161.8-29,162.8-31.9,165.3-33.2z"/>
		<path id="Nuts-_x26_-Bolts-_x28_right_x29_" class="st3" d="M463.3-34.6l-1.8-0.9c-3-1.5-6.6-0.2-8,2.8l-2.6,5.4l0,0l12.6,6.1
			l2.6-5.4C467.5-29.5,466.2-33.1,463.3-34.6z"/>
	</g>
	<g id="Ringer-" transform="translate(184.000000, 96.000000)">
		
			<rect id="Rectangle_00000170270576894990144930000008531984759802075531_" x="133.6" y="-23.8" class="st0" width="4" height="56"/>
		<path id="Rectangle_00000017492516634474772350000006822131080839885702_" class="st0" d="M114.6-35.8h42c2.2,0,4,1.8,4,4v5
			c0,2.2-1.8,4-4,4h-42c-2.2,0-4-1.8-4-4v-5C110.6-34,112.4-35.8,114.6-35.8z"/>
	</g>
	<g id="Clock-Face-" transform="translate(0.000000, 148.000000)">
		<circle id="Light-blue-" class="st4" cx="319.6" cy="173.2" r="209"/>
		<circle id="Dark-blue-" class="st5" cx="319.6" cy="173.2" r="176"/>
		<path id="Pattern-" class="st6" d="M319.1,255.2c45,0,81.5-36.5,81.5-81.5s-36.5-81.5-81.5-81.5s-81.5,36.5-81.5,81.5
			S274.1,255.2,319.1,255.2z"/>
	</g>
	<g id="Numbers-" transform="translate(52.250000, 195.000000)">
		<text transform="matrix(1 0 0 1 331.321 27.2055)" class="st7 st8 st9">1</text>
		<text transform="matrix(1 0 0 1 375.571 78.2055)" class="st7 st8 st9">2</text>
		<text transform="matrix(1 0 0 1 401.071 139.2055)" class="st7 st8 st9">3</text>
		<text transform="matrix(1 0 0 1 373.571 206.2055)" class="st7 st8 st9">4</text>
		<text transform="matrix(1 0 0 1 318.071 260.2055)" class="st7 st8 st9">5</text>
		<text transform="matrix(1 0 0 1 254.321 283.2055)" class="st7 st8 st9">6</text>
		<text transform="matrix(1 0 0 1 188.071 260.2055)" class="st7 st8 st9">7</text>
		<text transform="matrix(1 0 0 1 136.821 206.2055)" class="st7 st8 st9">8</text>
		<text transform="matrix(1 0 0 1 110.571 139.2055)" class="st7 st8 st9">9</text>
		<text transform="matrix(1 0 0 1 123.321 78.2055)" class="st7 st8 st9">10</text>
		<text transform="matrix(1 0 0 1 167.321 27.2055)" class="st7 st8 st9">11</text>
		<text transform="matrix(1 0 0 1 242.571 0.2055)" class="st7 st8 st9">12</text>
	</g>
	<g id="Clock-hands-" transform="translate(61.701021, 274.360002)" class="st2">
		<polygon id="Hours-hand-" class="st10" points="193.7,171.7 267.2,113.5 203,182.6 183.9,191.5 		"/>
		<polygon id="Minutes-hand-" class="st10" points="155.7,108.7 275,121.1 151.9,125.2 111,113.9 		"/>
		<path id="Seconds-hand-" class="st10" d="M281.9,56.2l3.3,17.2l-6.7-2.5L210,259l-2.8-1l68.5-188.1l-7.4-2.7L281.9,56.2z"/>
		<circle id="Oval" class="st10" cx="259.8" cy="119.2" r="15.5"/>
	</g>
</g>
<g id="Layer_2">
</g>
</svg>
