<?xml version="1.0" encoding="utf-8"?>
<!-- Generator: Adobe Illustrator 26.1.0, SVG Export Plug-In . SVG Version: 6.00 Build 0)  -->
<svg version="1.1" id="Layer_1" xmlns="http://www.w3.org/2000/svg" xmlns:xlink="http://www.w3.org/1999/xlink" x="0px" y="0px"
	 viewBox="0 0 639.5 639.5" style="enable-background:new 0 0 639.5 639.5;" xml:space="preserve">
<style type="text/css">
	.st0{fill-rule:evenodd;clip-rule:evenodd;fill:#D8D8D8;}
	.st1{fill-rule:evenodd;clip-rule:evenodd;fill:#C3C3C3;}
	.st2{fill-rule:evenodd;clip-rule:evenodd;fill:#C9EFFC;}
	.st3{fill-rule:evenodd;clip-rule:evenodd;fill:#99D5E9;}
	.st4{fill:none;stroke:#F5F5F5;stroke-width:3;stroke-linecap:round;stroke-linejoin:round;stroke-dasharray:0,10;}
	.st5{fill:#F5F5F5;}
	.st6{font-family:'Arial-BoldMT';}
	.st7{font-size:46px;}
	.st8{fill-rule:evenodd;clip-rule:evenodd;fill:#FFFFFF;}
</style>
<g id="Feet-" transform="translate(39.679878, 506.762424)">
	<path id="Rectangle" class="st0" d="M140.3,36.9l22.2,18.6l-27.6,33c-3.2,3.8-8.9,4.3-12.7,1.1l-15.3-12.9l0,0L140.3,36.9z"/>
	<path id="Rectangle-Copy-2" class="st0" d="M399.1,36.9l-22.2,18.6l27.6,32.9c3.2,3.8,8.9,4.3,12.7,1.1l15.3-12.9l0,0L399.1,36.9z"
		/>
</g>
<rect id="Rectangle_00000103261953827943332740000015825609314967553175_" x="401.2" y="199.7" transform="matrix(0.454 -0.891 0.891 0.454 41.1395 482.4509)" class="st0" width="26" height="16"/>
<rect id="Rectangle_00000078755875913260977940000014610464703839758735_" x="209.4" y="194.7" transform="matrix(0.891 -0.454 0.454 0.891 -70.5989 121.3499)" class="st0" width="16" height="26"/>
<path id="Bracket-" class="st0" d="M186.9,112.6c0-41.4,33.2-75,74.4-75.7h1.3h107.6h1.3c40.8,0.7,73.8,33.6,74.4,74.4v1.2v0.4l0,0
	v8.9h-6.2v-0.4c0-41.4-33.2-75.1-74.5-75.8h-1.3h-93.5c-41.4,0-75.1,33.2-75.8,74.5v1.6l0,0h-7.8v-9.1H186.9z"/>
<path id="Right-arm-" class="st0" d="M160.9,129.5l25.8-12.7c2.3-1.1,5-0.2,6.2,2c1.1,2.1,0.3,4.8-1.8,5.9c0,0-0.1,0-0.1,0.1
	l-25.8,12.7c-2.3,1.1-5,0.2-6.2-2c-1.1-2.1-0.3-4.8,1.8-5.9C160.8,129.6,160.8,129.5,160.9,129.5z"/>
<path id="Left-arm-" class="st0" d="M445.9,116.1l25.8,12.7c2.2,1.1,3.1,3.7,2,5.9c0,0,0,0.1-0.1,0.1c-1.2,2.2-3.9,3.1-6.2,2
	l-25.8-12.7c-2.2-1.1-3.1-3.7-2-5.9c0,0,0-0.1,0.1-0.1C440.9,115.9,443.6,115,445.9,116.1z"/>
<g id="Nuts-_x26_-Bolts" transform="translate(5.131818, 71.538638)">
	<path id="Nuts-_x26_-Bolts-_x28_Left_x29_" class="st1" d="M161.3,41.8l3.6-1.8c2.5-1.2,5.5-0.2,6.7,2.3l3.1,6.3l0,0l-12.6,6.1
		l-3.1-6.3C157.8,46,158.8,43.1,161.3,41.8z"/>
	<path id="Nuts-_x26_-Bolts-_x28_right_x29_" class="st1" d="M459.3,40.4l-1.8-0.9c-3-1.5-6.6-0.2-8,2.8l-2.6,5.4l0,0l12.6,6.1
		l2.6-5.4C463.5,45.5,462.2,41.9,459.3,40.4z"/>
</g>
<g id="Ringer-" transform="translate(184.000000, 96.000000)">
	<rect id="Rectangle_00000170270576894990144930000008531984759802075531_" x="129.9" y="48.9" class="st0" width="4" height="56"/>
	<path id="Rectangle_00000017492516634474772350000006822131080839885702_" class="st0" d="M110.9,36.9h42c2.2,0,4,1.8,4,4v5
		c0,2.2-1.8,4-4,4h-42c-2.2,0-4-1.8-4-4v-5C106.9,38.7,108.7,36.9,110.9,36.9z"/>
</g>
<g id="Clock-Face-" transform="translate(0.000000, 148.000000)">
	<circle id="Light-blue-" class="st2" cx="315.9" cy="245.9" r="209"/>
	<circle id="Dark-blue-" class="st3" cx="315.9" cy="245.9" r="176"/>
	<path id="Pattern-" class="st4" d="M315.4,327.9c45,0,81.5-36.5,81.5-81.5s-36.5-81.5-81.5-81.5s-81.5,36.5-81.5,81.5
		S270.4,327.9,315.4,327.9z"/>
</g>
<g id="Numbers-" transform="translate(52.250000, 195.000000)">
	<text transform="matrix(1 0 0 1 327.6516 99.875)" class="st5 st6 st7">1</text>
	<text transform="matrix(1 0 0 1 371.9016 150.875)" class="st5 st6 st7">2</text>
	<text transform="matrix(1 0 0 1 397.4016 211.875)" class="st5 st6 st7">3</text>
	<text transform="matrix(1 0 0 1 369.9016 278.875)" class="st5 st6 st7">4</text>
	<text transform="matrix(1 0 0 1 314.4016 332.875)" class="st5 st6 st7">5</text>
	<text transform="matrix(1 0 0 1 250.6516 355.875)" class="st5 st6 st7">6</text>
	<text transform="matrix(1 0 0 1 184.4016 332.875)" class="st5 st6 st7">7</text>
	<text transform="matrix(1 0 0 1 133.1516 278.875)" class="st5 st6 st7">8</text>
	<text transform="matrix(1 0 0 1 106.9016 211.875)" class="st5 st6 st7">9</text>
	<text transform="matrix(1 0 0 1 119.6516 150.875)" class="st5 st6 st7">10</text>
	<text transform="matrix(1 0 0 1 163.6516 99.875)" class="st5 st6 st7">11</text>
	<text transform="matrix(1 0 0 1 238.9016 72.875)" class="st5 st6 st7">12</text>
</g>
<polygon id="Hours-hand-" class="st8" points="324.9,422 398.4,363.8 334.2,432.9 315.1,441.8 "/>
<polygon id="Minutes-hand-" class="st8" points="286.9,359 406.2,371.4 283.1,375.5 242.2,364.2 "/>
<path id="Seconds-hand-" class="st8" d="M413.1,306.5l3.3,17.2l-6.7-2.5l-68.5,188.1l-2.8-1l68.5-188.1l-7.4-2.7L413.1,306.5z"/>
<circle id="Oval" class="st8" cx="391" cy="369.5" r="15.5"/>
</svg>
